<?xml version="1.0" encoding="UTF-8"?>
<svg width="239px" height="54px" viewBox="0 0 239 54" version="1.1" xmlns="http://www.w3.org/2000/svg" xmlns:xlink="http://www.w3.org/1999/xlink">
    <title>Logo</title>
    <g id="Symbols" stroke="none" stroke-width="1" fill="none" fill-rule="evenodd">
        <g id="Nav/light" transform="translate(-80.000000, -40.000000)" fill="#FFFFFF" fill-rule="nonzero">
            <g id="Logo" transform="translate(80.000000, 40.000000)">
                <g transform="translate(0.000000, 0.000000)">
                    <path d="M85.5647578,1.22053403 C85.5647578,0.560478768 86.0998383,0.0253982571 86.7598936,0.0253982571 C87.4199489,0.0253982571 87.9550294,0.560478768 87.9550294,1.22053403 L87.9550294,23.524337 C87.9550294,24.1843922 87.4199489,24.7194728 86.7598936,24.7194728 C86.0998383,24.7194728 85.5647578,24.1843922 85.5647578,23.524337 L85.5647578,1.22053403 Z" id="Path"></path>
                    <path d="M92.3496095,16.5278805 C92.4727336,17.3386191 92.7474238,18.1189225 93.159322,18.828004 C93.9629739,20.2314663 95.230341,21.3112097 96.7436497,21.8817001 C98.3884571,22.5003739 100.2066,22.4727912 101.831884,21.8045075 C102.647516,21.4607907 103.392561,20.9692185 104.029444,20.3545821 C104.499144,19.8865213 105.25935,19.8878505 105.727411,20.3575511 C106.195472,20.8272517 106.194142,21.5874575 105.724442,22.0555184 C104.876943,23.0091799 103.919862,23.6855598 102.853201,24.0846581 C101.78654,24.4837564 100.559735,24.6836655 99.1727875,24.6843852 C96.7276414,24.7040314 94.3732043,23.7595414 92.6195137,22.0555184 C91.7629182,21.218949 91.0815563,20.2201198 90.6152051,19.1173413 C90.1264986,17.9837437 89.8824721,16.7468627 89.8826851,15.4066985 C89.8659962,12.9528755 90.8305272,10.5941182 92.5617542,8.85504405 C93.4163017,8.00436606 94.4235326,7.32237923 95.5307003,6.84479762 C96.6740145,6.34097646 97.9137744,6.06405475 99.2499801,6.01402889 C100.451536,6.01293227 101.640057,6.26299229 102.739301,6.74817192 C103.839695,7.22650956 104.839852,7.9083602 105.687195,8.75787854 C106.538896,9.61404695 107.23082,10.6154634 107.73037,11.7149489 C108.245518,12.8490748 108.507635,14.0817398 108.498517,15.3273466 C108.498517,15.7138494 108.370043,16.0103842 108.113094,16.2169508 C107.856145,16.4235175 107.586241,16.526441 107.303381,16.5257212 L92.3496095,16.5278805 Z M105.994346,14.131671 C105.842754,13.3410008 105.555865,12.5824173 105.146307,11.889307 C104.746131,11.20697 104.231146,10.5988504 103.624047,10.0917451 C103.011963,9.58500813 102.322011,9.18051573 101.580873,8.89391026 C100.029497,8.30092261 98.3139191,8.30092261 96.762543,8.89391026 C96.0212622,9.1799817 95.3312552,9.58432398 94.7193683,10.0912053 C94.1144254,10.5951647 93.6053347,11.2040987 93.2165417,11.8887672 C92.8178842,12.585092 92.537859,13.3428933 92.3879359,14.1311312 L105.994346,14.131671 Z" id="Shape"></path>
                    <path d="M111.467463,1.25886042 C111.467463,0.598805163 112.002544,0.0637246526 112.662599,0.0637246526 C113.322654,0.0637246526 113.857735,0.598805163 113.857735,1.25886042 L113.857735,14.0928048 L121.642851,6.32280291 C122.113729,5.86146692 122.86844,5.86586871 123.333903,6.33266584 C123.799367,6.79946297 123.80161,7.55418352 123.338929,8.02373914 L117.78808,13.4380173 L123.686026,22.9472818 C123.787274,23.1234968 123.840334,23.3232659 123.839875,23.5264962 C123.839875,23.8104354 123.73191,24.0868173 123.512208,24.3578011 C123.316297,24.6172089 123.008649,24.7679263 122.683602,24.7638221 C122.246357,24.7638221 121.89944,24.5575302 121.642851,24.1451166 L116.055835,15.1751207 L113.856655,17.3786185 L113.856655,23.524337 C113.856655,24.1843922 113.321575,24.7194728 112.661519,24.7194728 C112.001464,24.7194728 111.466384,24.1843922 111.466384,23.524337 L111.467463,1.25886042 Z" id="Path"></path>
                    <path d="M127.655237,1.22053403 C127.655237,0.560478768 128.190318,0.0253982571 128.850373,0.0253982571 C129.510428,0.0253982571 130.045509,0.560478768 130.045509,1.22053403 L130.045509,5.93468068 L132.615537,5.93468068 C132.93689,5.92792535 133.246877,6.05363793 133.472752,6.28231728 C133.939165,6.75316454 133.939165,7.51186644 133.472752,7.9827137 C133.246932,8.21153697 132.936958,8.33743957 132.615537,8.33089011 L130.045509,8.33089011 L130.045509,23.524337 C130.052252,23.842518 129.929063,24.1497115 129.70435,24.375075 C129.483608,24.597524 129.183192,24.7226391 128.869806,24.7226391 C128.556421,24.7226391 128.256004,24.597524 128.035262,24.375075 C127.810336,24.1498524 127.687108,23.8425638 127.694103,23.524337 L127.694103,8.33304934 L125.124616,8.33304934 C124.803531,8.33949254 124.493931,8.21358346 124.268479,7.98487293 C123.920848,7.64389932 123.814596,7.12623434 123.999808,6.67589329 C124.185019,6.22555225 124.624726,5.93242331 125.11166,5.93468068 L127.655237,5.93468068 L127.655237,1.22053403 Z" id="Path"></path>
                    <path d="M135.210935,7.13467472 C135.201733,6.70173612 135.427439,6.29768733 135.800916,6.07851783 C136.174393,5.85934832 136.637209,5.85934832 137.010686,6.07851783 C137.384164,6.29768733 137.60987,6.70173612 137.600667,7.13467472 L137.600667,9.02886235 C138.444667,8.11117061 139.45128,7.35767463 140.569613,6.80647122 C141.726602,6.22635714 142.986155,5.93648004 144.348272,5.93683991 C144.758526,5.93683991 145.08601,6.05271878 145.330723,6.28447651 C145.564406,6.50552298 145.696804,6.81300839 145.696804,7.13467472 C145.696804,7.45634105 145.564406,7.76382646 145.330723,7.98487293 C145.08637,8.21699054 144.758886,8.33304934 144.348272,8.33304934 C143.458446,8.32483242 142.57735,8.50896961 141.765289,8.87285773 C140.979078,9.22640636 140.266378,9.72467388 139.664354,10.3416764 C139.059258,10.96216 138.564038,11.6809869 138.199854,12.4674418 C137.829691,13.2549361 137.626248,14.1104255 137.602286,14.9802498 L137.602286,23.524337 C137.611489,23.9572756 137.385783,24.3613244 137.012306,24.5804939 C136.638829,24.7996634 136.176013,24.7996634 135.802535,24.5804939 C135.429058,24.3613244 135.203352,23.9572756 135.212555,23.524337 L135.210935,7.13467472 Z" id="Path"></path>
                    <path d="M147.391172,1.60703683 C147.392913,0.852945684 147.926956,0.2050355 148.666846,0.0593677793 C149.406737,-0.0862999418 150.146523,0.310821721 150.433982,1.00797597 C150.72144,1.70513022 150.476556,2.50826269 149.849024,2.92642592 C149.221493,3.34458916 148.385989,3.26138653 147.853248,2.72767905 C147.55165,2.43358195 147.384514,2.02823749 147.391172,1.60703683 Z M147.776595,7.13467472 C147.776595,6.47491759 148.311434,5.94007876 148.971191,5.94007876 C149.630948,5.94007876 150.165787,6.47491759 150.165787,7.13467472 L150.165787,23.524337 C150.165787,24.1840941 149.630948,24.718933 148.971191,24.718933 C148.311434,24.718933 147.776595,24.1840941 147.776595,23.524337 L147.776595,7.13467472 Z" id="Shape"></path>
                    <path d="M152.517192,1.25886042 C152.517192,0.598805163 153.052273,0.0637246526 153.712328,0.0637246526 C154.372383,0.0637246526 154.907464,0.598805163 154.907464,1.25886042 L154.907464,14.0928048 L162.695279,6.32280291 C163.166156,5.86146692 163.920867,5.86586871 164.386331,6.33266584 C164.851795,6.79946297 164.854038,7.55418352 164.391357,8.02373914 L158.838888,13.4380173 L164.736835,22.9472818 C164.838082,23.1234968 164.891143,23.3232659 164.890683,23.5264962 C164.890683,23.8104354 164.782718,24.0868173 164.563016,24.3578011 C164.367106,24.6172089 164.059458,24.7679263 163.73441,24.7638221 C163.297166,24.7638221 162.950249,24.5575302 162.69366,24.1451166 L157.104484,15.1751207 L154.907464,17.3786185 L154.907464,23.524337 C154.907464,24.1843922 154.372383,24.7194728 153.712328,24.7194728 C153.052273,24.7194728 152.517192,24.1843922 152.517192,23.524337 L152.517192,1.25886042 Z" id="Path"></path>
                    <path d="M167.357604,16.5278805 C167.481004,17.3385503 167.755677,18.1188035 168.167317,18.828004 C168.971385,20.2313281 170.238861,21.3110015 171.752184,21.8817001 C173.396253,22.5001406 175.213574,22.4727516 176.838259,21.8050473 C177.654033,21.4615949 178.399124,20.9699923 179.035819,20.3551219 C179.508108,19.902681 180.255587,19.9112959 180.717322,20.3745017 C181.179058,20.8377075 181.185297,21.5852098 180.731357,22.0560582 C179.883858,23.0097197 178.926778,23.6860996 177.860116,24.0851979 C176.793455,24.4842962 175.566471,24.6842053 174.179163,24.684925 C171.734203,24.7044289 169.379986,23.7599494 167.626429,22.0560582 C166.769834,21.2194889 166.088472,20.2206596 165.62212,19.1178811 C165.133774,17.9842835 164.8896,16.7474026 164.8896,15.4072383 C164.873054,12.9530731 165.837993,10.5940729 167.569749,8.85504405 C168.424198,8.00424597 169.431453,7.32224275 170.538695,6.84479762 C171.682009,6.34097646 172.921769,6.06405475 174.257975,6.01402855 C175.459362,6.01288027 176.647717,6.26294414 177.746757,6.74817192 C178.847225,7.22637276 179.847407,7.90823996 180.69465,8.75787854 C181.54653,9.61389816 182.238478,10.6153487 182.737825,11.7149489 C183.255016,12.8500436 183.518269,14.0843301 183.509211,15.3316651 C183.509211,15.7181679 183.380737,16.0147026 183.123788,16.2212693 C182.866839,16.427836 182.596935,16.5307595 182.314075,16.5300397 L167.357604,16.5278805 Z M181.002881,14.131671 C180.85134,13.3409047 180.564254,12.5822827 180.154302,11.889307 C179.754125,11.20697 179.239141,10.5988504 178.632042,10.0917451 C178.020035,9.58489917 177.330064,9.18039593 176.588868,8.89391026 C175.037652,8.30106015 173.322293,8.30106015 171.771078,8.89391026 C171.029735,9.1798525 170.339708,9.5842065 169.727903,10.0912053 C169.122809,10.5950134 168.613694,11.2039769 168.225076,11.8887672 C167.826218,12.5849981 167.54618,13.3428339 167.396471,14.1311312 L181.002881,14.131671 Z" id="Shape"></path>
                    <path d="M186.359399,7.13467472 C186.350197,6.70173612 186.575903,6.29768733 186.94938,6.07851783 C187.322857,5.85934832 187.785673,5.85934832 188.15915,6.07851783 C188.532628,6.29768733 188.758334,6.70173612 188.749131,7.13467472 L188.749131,9.02886235 C189.59324,8.11129107 190.599829,7.35781301 191.718077,6.80647122 C192.874707,6.22635714 194.13426,5.93648004 195.496736,5.93683991 C195.90699,5.93683991 196.234654,6.05271878 196.479727,6.28447651 C196.712979,6.5057611 196.845073,6.8131577 196.845073,7.13467472 C196.845073,7.45619175 196.712979,7.76358835 196.479727,7.98487293 C196.234654,8.21699054 195.90699,8.33304934 195.496736,8.33304934 C194.60708,8.32479114 193.726151,8.50893187 192.914293,8.87285773 C192.127839,9.22625798 191.414935,9.72453963 190.812819,10.3416764 C190.207712,10.9620347 189.71265,11.6808959 189.348858,12.4674418 C188.978242,13.2548029 188.774602,14.1103505 188.750751,14.9802498 L188.750751,23.524337 C188.759953,23.9572756 188.534247,24.3613244 188.16077,24.5804939 C187.787293,24.7996634 187.324477,24.7996634 186.950999,24.5804939 C186.577522,24.3613244 186.351816,23.9572756 186.361019,23.524337 L186.359399,7.13467472 Z" id="Path"></path>
                    <path d="M196.265963,23.1378342 C196.266764,22.3825851 196.800901,21.7330513 197.541774,21.5863928 C198.282648,21.4397344 199.023961,21.8367882 199.312435,22.5347743 C199.600909,23.2327604 199.356218,24.0373244 198.72798,24.4565125 C198.099742,24.8757006 197.262889,24.7927899 196.729119,24.2584764 C196.427124,23.9645631 196.259588,23.5591951 196.265963,23.1378342 Z" id="Path"></path>
                    <path d="M215.213777,6.05235891 C216.241212,6.05235891 217.166444,6.20692404 217.989472,6.51605431 C218.8125,6.82518458 219.519109,7.17965875 220.109299,7.57947683 C220.69985,7.97893504 221.155988,8.37821331 221.477714,8.77731165 C221.799439,9.17640998 221.959943,9.47942242 221.959223,9.68634897 C221.959223,9.96992831 221.843524,10.2146414 221.612126,10.4204884 C221.404025,10.6177848 221.128577,10.728389 220.841819,10.7297986 C220.523075,10.7361575 220.21591,10.6103217 219.993241,10.382162 C219.340241,9.80839878 218.598197,9.34475822 217.79622,9.00942925 C216.954071,8.6574507 216.049299,8.47987527 215.136585,8.48743454 C214.216091,8.48096012 213.304187,8.66473759 212.458055,9.02724293 C210.793295,9.73582728 209.472047,11.067926 208.777102,12.7384256 C208.416078,13.5942986 208.232438,14.5145171 208.237294,15.4434054 C208.230885,16.3666837 208.414635,17.2813945 208.777102,18.1305716 C209.481038,19.7903825 210.80021,21.1132293 212.458055,21.8217813 C213.304108,22.1845405 214.216066,22.3683287 215.136585,22.3615897 C216.049299,22.369149 216.954071,22.1915736 217.79622,21.839595 C218.611807,21.4963343 219.356723,21.0049094 219.993241,20.3902095 C220.21591,20.1620498 220.523075,20.036214 220.841819,20.0425729 C221.149559,20.0425641 221.445712,20.1599444 221.669885,20.3707764 C221.909343,20.5795471 222.043638,20.8839365 222.036415,21.2015415 C222.036415,21.408468 221.888508,21.7113006 221.592693,22.110039 C221.296878,22.5087775 220.853875,22.9019379 220.263685,23.2895203 C219.672055,23.6760231 218.946012,24.0108843 218.085558,24.2941037 C217.225103,24.5773232 216.242112,24.7191129 215.136585,24.7194728 C212.691811,24.7388343 210.337814,23.7943653 208.58439,22.0906059 C207.728446,21.2552886 207.047615,20.2577153 206.581701,19.1562075 C206.093355,18.0226099 205.849181,16.785549 205.849181,15.4450249 C205.831778,12.9918547 206.795105,10.6333841 208.525011,8.89391026 C209.37932,8.04294176 210.386609,7.36091528 211.493958,6.88366382 C212.637272,6.38056241 213.877212,6.10346077 215.213777,6.05235891 Z" id="Path"></path>
                    <path d="M225.119801,1.22053403 C225.110598,0.787595426 225.336304,0.383546639 225.709782,0.164377131 C226.083259,-0.0547923769 226.546075,-0.0547923769 226.919552,0.164377131 C227.293029,0.383546639 227.518735,0.787595426 227.509533,1.22053403 L227.509533,7.71604836 C228.116086,7.19155779 228.806856,6.77326303 229.552707,6.47880753 C230.33759,6.16725359 231.175194,6.0099967 232.019632,6.01565194 C232.94666,6.01017174 233.865063,6.19385236 234.718674,6.55546032 C236.39368,7.25507109 237.723793,8.5890659 238.41852,10.2661032 C238.779631,11.1221391 238.963272,12.0425514 238.958426,12.9716228 L238.958426,23.524337 C238.958426,24.1843922 238.423248,24.7194728 237.763193,24.7194728 C237.103138,24.7194728 236.568057,24.1843922 236.568057,23.524337 L236.568057,12.9716228 C236.570686,12.3662175 236.445992,11.7670238 236.202067,11.2129271 C235.967161,10.6729978 235.633822,10.1815013 235.219076,9.76354157 C234.369733,8.9178329 233.218749,8.44489255 232.020171,8.44910815 C231.424001,8.44406338 230.833198,8.56204025 230.284688,8.79566513 C229.758483,9.0182642 229.275829,9.33223658 228.859054,9.72305594 C228.447714,10.1101295 228.11966,10.5770463 227.894956,11.0952489 C227.662651,11.6267789 227.531924,12.1971068 227.509533,12.776752 L227.509533,23.524337 C227.509533,23.8842092 227.400311,24.1742663 227.181869,24.3945081 C226.963426,24.6147499 226.674449,24.7241511 226.314937,24.7227116 C226.001368,24.7317532 225.69915,24.605042 225.485791,24.375075 C225.267538,24.1433638 225.137948,23.8421341 225.119801,23.524337 L225.119801,1.22053403 Z" id="Path"></path>
                    <path d="M115.014004,37.196064 C114.831472,36.7634429 114.567173,36.3701093 114.235601,36.0376352 C113.90168,35.7051098 113.507174,35.4396015 113.073393,35.2554529 C112.16337,34.871813 111.137007,34.871813 110.226984,35.2554529 C109.792413,35.4402065 109.396776,35.7056132 109.060998,36.0376352 C109.024291,36.0743422 108.988663,36.111589 108.953036,36.1493756 L108.953036,32.8506065 C108.95701,32.7215985 108.90529,32.5971163 108.811066,32.5089078 C108.618885,32.3298087 108.320929,32.3298087 108.128748,32.5089078 C108.034525,32.5971163 107.982805,32.7215985 107.986779,32.8506065 L107.986779,41.7185787 C107.984254,41.8460567 108.035837,41.9686405 108.128748,42.0559589 C108.318856,42.2402489 108.620959,42.2402489 108.811066,42.0559589 C108.903978,41.9686405 108.955561,41.8460567 108.953036,41.7185787 L108.953036,41.0918612 C108.988123,41.1301876 109.023751,41.1679741 109.060998,41.2046811 C109.395903,41.5387226 109.791697,41.8055173 110.226984,41.9906421 C111.137007,42.374282 112.16337,42.374282 113.073393,41.9906421 C113.507896,41.8061287 113.902562,41.5392298 114.235601,41.2046811 C114.566669,40.8703478 114.830866,40.4758845 115.014004,40.0424737 C115.392563,39.1314302 115.392563,38.1071075 115.014004,37.196064 L115.014004,37.196064 Z M114.131958,39.6624485 C113.999005,39.9821874 113.804808,40.2728405 113.5603,40.5180448 C113.314248,40.7631765 113.024156,40.9596848 112.705244,41.0972592 C112.031172,41.3834454 111.269745,41.3834454 110.595673,41.0972592 C110.277299,40.9604504 109.988132,40.7638243 109.743855,40.5180448 C109.501092,40.2714153 109.307135,39.9811208 109.172198,39.6624485 C108.891482,38.994012 108.891482,38.2407471 109.172198,37.5723105 C109.30737,37.2560035 109.501356,36.9682301 109.743855,36.7242715 C109.988497,36.4809792 110.277702,36.2870761 110.595673,36.1531542 C111.270707,35.871734 112.03021,35.871734 112.705244,36.1531542 C113.023761,36.2878401 113.313892,36.4816267 113.5603,36.7242715 C114.324618,37.4994612 114.549878,38.6572405 114.131958,39.6624485 L114.131958,39.6624485 Z" id="Shape"></path>
                    <path d="M119.033957,40.5833617 L121.36593,35.2667888 C121.418763,35.1473496 121.515352,35.0526929 121.635834,35.0022827 C121.752967,34.9485482 121.887978,34.9499339 122.003983,35.0060614 C122.12508,35.0552141 122.219775,35.1532413 122.264711,35.2759656 C122.31063,35.4008644 122.305195,35.5388684 122.249596,35.6597694 L119.464725,41.9274845 L119.441513,41.9884829 L118.298738,44.5660679 C118.247754,44.6877485 118.149475,44.7834615 118.026488,44.8312103 C117.903502,44.8789592 117.766385,44.8746374 117.64665,44.8192381 C117.532925,44.7736468 117.447455,44.676967 117.416152,44.5585106 C117.385707,44.4318535 117.399222,44.2986094 117.454478,44.1806448 L118.52114,41.7412506 L115.836133,35.6500528 C115.779347,35.5313391 115.775038,35.3942322 115.824257,35.2721869 C115.870209,35.1513787 115.962802,35.0541175 116.081206,35.0022827 C116.197135,34.9461821 116.331764,34.9434225 116.449895,34.9947254 C116.57243,35.044839 116.669685,35.1420943 116.719799,35.2646296 L119.033957,40.5833617 Z" id="Path"></path>
                    <path d="M126.114624,33.0497958 C126.058143,32.9325446 126.056759,32.7962424 126.110845,32.6778678 C126.162321,32.559213 126.259708,32.4665006 126.38075,32.420919 C126.495228,32.3697335 126.625816,32.3683651 126.741342,32.4171404 C126.863805,32.4645196 126.961403,32.560165 127.011246,32.6816465 L130.386668,40.5142662 L131.982881,36.8392507 L130.348881,33.0497958 C130.292408,32.9328521 130.289453,32.7971584 130.340784,32.6778678 C130.45023,32.4377466 130.727187,32.3237055 130.973979,32.4171404 C131.096549,32.4643548 131.194203,32.5600556 131.243883,32.6816465 L132.502177,35.6198235 L133.775585,32.6816465 C133.826808,32.5638632 133.921583,32.4704426 134.040091,32.420919 C134.156135,32.3696394 134.288417,32.3696394 134.404462,32.420919 C134.523437,32.4679562 134.618803,32.5604082 134.669507,32.6778678 C134.723071,32.7963529 134.721689,32.9324235 134.665729,33.0497958 L133.031729,36.8316934 L134.611748,40.5142662 L138.012541,32.6816465 C138.06291,32.5645934 138.156215,32.4712886 138.273268,32.420919 C138.390618,32.3695957 138.524067,32.3695957 138.641418,32.420919 C138.759677,32.4675115 138.853831,32.5603012 138.902145,32.6778678 C138.95336,32.7971364 138.950605,32.9327062 138.894588,33.0497958 L135.074364,41.895096 C135.037758,41.9921929 134.968471,42.073505 134.878413,42.1250544 C134.793968,42.1749338 134.696751,42.1989566 134.598793,42.1941499 C134.406198,42.1913669 134.233975,42.0735749 134.161548,41.895096 L132.504336,38.0516603 L130.847124,41.895096 C130.810767,41.9867939 130.746336,42.0646411 130.66305,42.1174971 C130.58529,42.1675244 130.494784,42.1941328 130.402322,42.1941499 C130.302903,42.1999487 130.204021,42.1758862 130.118383,42.1250544 C130.030203,42.0724363 129.962605,41.9913187 129.926751,41.895096 L126.114624,33.0497958 Z" id="Path"></path>
                    <path d="M138.983656,41.2009025 C139.228506,40.9604399 139.620853,40.9604399 139.865703,41.2009025 C139.985021,41.319214 140.050251,41.4815058 140.045999,41.6494832 C140.055508,41.8774418 139.939311,42.0922739 139.743326,42.2090869 C139.547341,42.3258999 139.303098,42.3258999 139.107113,42.2090869 C138.911127,42.0922739 138.794931,41.8774418 138.80444,41.6494832 C138.799645,41.4816192 138.864514,41.3192517 138.983656,41.2009025 Z" id="Path"></path>
                    <path d="M146.458923,36.8165787 L151.445673,36.8165787 L151.445673,32.8506065 C151.443337,32.7222359 151.496452,32.5990888 151.591421,32.5126865 C151.683545,32.4227341 151.80761,32.3730305 151.936358,32.3744193 C152.062891,32.3734767 152.18453,32.4233286 152.273954,32.5128543 C152.363378,32.6023801 152.413092,32.724075 152.41193,32.8506065 L152.41193,41.7185787 C152.414184,41.8460047 152.362645,41.9684832 152.26996,42.0559589 C152.07967,42.2403151 151.777393,42.2403151 151.587102,42.0559589 C151.49456,41.9684276 151.443211,41.8459355 151.445673,41.7185787 L151.445673,37.7833755 L146.458923,37.7833755 L146.458923,41.7185787 C146.461177,41.8460047 146.409638,41.9684832 146.316953,42.0559589 C146.126663,42.2403151 145.824386,42.2403151 145.634095,42.0559589 C145.541411,41.9684832 145.489872,41.8460047 145.492126,41.7185787 L145.492126,32.8506065 C145.489854,32.7230197 145.541383,32.6003676 145.634095,32.5126865 C145.824386,32.3283303 146.126663,32.3283303 146.316953,32.5126865 C146.409665,32.6003676 146.461195,32.7230197 146.458923,32.8506065 L146.458923,36.8165787 Z" id="Path"></path>
                    <path d="M154.814077,39.0718982 C154.852772,39.3865419 154.950379,39.6910834 155.101795,39.9695995 C155.249378,40.2411314 155.442776,40.4851162 155.673452,40.6907835 C155.906411,40.8970557 156.173939,41.0606057 156.463731,41.173912 C156.764139,41.2923375 157.084414,41.3522516 157.407316,41.3504294 C157.790948,41.3557923 158.170971,41.2757681 158.519861,41.1161525 C158.836691,40.9718042 159.117084,40.7581887 159.34037,40.4910544 C159.410864,40.4276314 159.496922,40.384044 159.589762,40.3647393 C159.668223,40.3517673 159.74867,40.3582549 159.824038,40.3836326 C159.918755,40.4160453 159.996528,40.485069 160.039962,40.5752645 C160.11218,40.6637731 160.149098,40.7758717 160.143605,40.8899728 C160.1357,41.0233777 160.069826,41.1466464 159.963309,41.2273531 C159.822279,41.383826 159.665439,41.525289 159.495295,41.6494832 C159.314802,41.7812195 159.120603,41.893069 158.916081,41.9830848 C158.693155,42.0814425 158.460467,42.1559894 158.221887,42.2054859 C157.954534,42.2611769 157.682022,42.2883195 157.408936,42.2864571 C156.91984,42.2898953 156.435339,42.1919291 155.986001,41.9987392 C155.552881,41.8131344 155.158603,41.5475965 154.823793,41.2160171 C154.489072,40.8830082 154.221991,40.4883436 154.037293,40.0538096 C153.653388,39.1425292 153.653388,38.1149017 154.037293,37.2036213 C154.222762,36.7707825 154.489783,36.3776736 154.823793,36.0457323 C155.158314,35.7138008 155.552663,35.4482151 155.986001,35.2630102 C156.43425,35.0707021 156.917408,34.9731148 157.405157,34.9763719 C157.892595,34.9735355 158.375489,35.0701512 158.824313,35.2603111 C159.257614,35.4419582 159.652122,35.7049019 159.986521,36.0349362 C160.319626,36.3666153 160.586867,36.7584093 160.774101,37.1895863 C160.969861,37.635579 161.07254,38.1168316 161.075854,38.6038843 C161.079316,38.7281927 161.032173,38.8485825 160.945221,38.9374859 C160.856698,39.0277886 160.734208,39.0765886 160.60784,39.0718982 L154.814077,39.0718982 Z M160.084766,38.2589467 C160.050719,37.9333673 159.955676,37.617109 159.804605,37.3266977 C159.657405,37.0428158 159.459869,36.7880299 159.221612,36.5747446 C158.726314,36.1330865 158.084955,35.8905817 157.421351,35.8940462 C157.086426,35.8916393 156.754225,35.9543396 156.443219,36.0786607 C156.145811,36.196921 155.871679,36.3668825 155.633506,36.5806825 C155.397523,36.7942184 155.202513,37.0490483 155.05807,37.3326355 C154.909438,37.6206267 154.817794,37.9346005 154.788166,38.2573273 L160.084766,38.2589467 Z" id="Shape"></path>
                    <path d="M163.289069,38.607663 C163.037319,38.5060569 162.799948,38.3719457 162.582999,38.2087446 C162.38303,38.0579342 162.214965,37.8689525 162.088535,37.6527419 C161.958753,37.4210727 161.893856,37.1586886 161.900681,36.8932315 C161.895436,36.6024435 161.966735,36.315387 162.107428,36.060847 C162.241613,35.8222655 162.425748,35.6154823 162.647236,35.4546422 C162.878784,35.2892526 163.136945,35.1647366 163.410525,35.0864928 C163.691949,35.0030265 163.983918,34.9604856 164.277458,34.9601777 C164.497675,34.9601777 164.717353,34.9819235 164.933325,35.0249547 C165.143566,35.0663852 165.348271,35.1321444 165.543308,35.2209051 C165.72868,35.3047342 165.901607,35.4137222 166.057206,35.5447902 C166.209555,35.6735313 166.33471,35.8313519 166.425355,36.0090254 C166.473393,36.0938396 166.492352,36.1920455 166.479336,36.2886461 C166.466105,36.3684937 166.428376,36.4422527 166.371374,36.4997112 C166.311139,36.5653925 166.232188,36.6109924 166.145195,36.6303448 C166.058626,36.6512257 165.967437,36.6403059 165.888246,36.5995758 C165.692243,36.3695495 165.460379,36.1726844 165.20161,36.0165827 C164.940023,35.8723621 164.644601,35.8007898 164.346013,35.8092963 C164.166682,35.8094096 163.987881,35.8287737 163.812683,35.8670558 C163.64513,35.901895 163.484457,35.9640851 163.337111,36.0511304 C163.200233,36.1317318 163.083551,36.2425054 162.995953,36.3750155 C162.904985,36.5221215 162.859535,36.6928374 162.865319,36.8657013 C162.860403,37.0262251 162.90182,37.1847685 162.984617,37.3223792 C163.068778,37.4533992 163.179032,37.5656742 163.308502,37.6522021 C163.457958,37.7528293 163.618876,37.8352819 163.787851,37.8978149 C163.967788,37.9669104 164.160859,38.0320473 164.367066,38.0932256 C164.69419,38.1957892 165.00476,38.3019515 165.298775,38.4117125 C165.574571,38.5120926 165.836354,38.6474289 166.077719,38.8144096 C166.29503,38.9649939 166.478065,39.1598023 166.614828,39.3860667 C166.753848,39.6327457 166.822731,39.9127577 166.814017,40.1957792 C166.816326,40.4824543 166.749284,40.7654371 166.618607,41.0206064 C166.487429,41.2743979 166.305969,41.4988352 166.085276,41.6802523 C165.850379,41.8724751 165.58264,42.0206095 165.294997,42.1174971 C164.981337,42.2242006 164.651944,42.277305 164.320642,42.2745813 C164.063021,42.274993 163.80602,42.249311 163.553575,42.1979285 C163.3086,42.1488227 163.070443,42.0703435 162.844266,41.9641915 C162.625615,41.8619286 162.422745,41.7288631 162.24184,41.5690518 C162.063153,41.4120398 161.916513,41.221957 161.809994,41.0092705 C161.733341,40.8710795 161.711568,40.7451242 161.744677,40.6314046 C161.771888,40.5245118 161.84121,40.4331861 161.936849,40.3782345 C162.037618,40.323676 162.154304,40.3061062 162.266671,40.3285721 C162.404467,40.3567902 162.526406,40.4362821 162.60783,40.5509732 C162.767427,40.8341023 163.006019,41.0646285 163.294467,41.2143977 C163.573008,41.3554676 163.914886,41.4258226 164.320103,41.4254627 C164.516262,41.4259882 164.711428,41.3976135 164.899317,41.3412526 C165.07724,41.2890887 165.245641,41.2087154 165.3981,41.1031971 C165.540734,41.0042793 165.659951,40.8752968 165.747356,40.7253313 C165.834342,40.5763657 165.879302,40.4065988 165.87745,40.2341056 C165.882478,40.0566611 165.831482,39.8821415 165.731701,39.7353227 C165.625824,39.5895554 165.491381,39.4668671 165.336562,39.3747307 C165.157365,39.2666909 164.967182,39.1780231 164.769223,39.1102246 C164.557258,39.0364508 164.336117,38.9687948 164.105799,38.9072566 C163.827617,38.8176484 163.555374,38.7177839 163.289069,38.607663 Z" id="Path"></path>
                    <path d="M169.065018,38.607663 C168.813379,38.5061774 168.576171,38.3720559 168.359489,38.2087446 C168.159364,38.0579455 167.991119,37.8689687 167.864484,37.6527419 C167.734927,37.4209839 167.670046,37.1586624 167.676631,36.8932315 C167.671386,36.6024435 167.742685,36.315387 167.883378,36.060847 C168.017563,35.8222655 168.201697,35.6154823 168.423186,35.4546422 C168.655464,35.2883164 168.91455,35.1630642 169.189174,35.0843336 C169.470598,35.0008672 169.762566,34.9583263 170.056106,34.9580184 C170.276326,34.9580184 170.49601,34.9797123 170.711974,35.0227955 C170.922235,35.0641498 171.126948,35.1299118 171.321957,35.2187459 C171.507387,35.3024653 171.680329,35.4114624 171.835855,35.5426309 C171.988356,35.6713607 172.113691,35.8291758 172.204544,36.0068661 C172.252394,36.0917493 172.271341,36.189892 172.258525,36.2864869 C172.245536,36.3664143 172.207772,36.4402435 172.150563,36.497552 C172.090328,36.5632333 172.011376,36.6088332 171.924383,36.6281856 C171.837815,36.6490665 171.746625,36.6381467 171.667435,36.5974165 C171.471431,36.3673902 171.239568,36.1705251 170.980798,36.0144235 C170.719212,35.8702029 170.42379,35.7986306 170.125202,35.807137 C169.946049,35.8072473 169.767426,35.8266117 169.592411,35.8648965 C169.425167,35.9021093 169.265213,35.9666747 169.118999,36.0559887 C168.98212,36.1365901 168.865439,36.2473636 168.77784,36.3798737 C168.686872,36.5269798 168.641423,36.6976957 168.647207,36.8705596 C168.642291,37.0310833 168.683707,37.1896268 168.766504,37.3272375 C168.850666,37.4582575 168.96092,37.5705325 169.090389,37.6570604 C169.239845,37.7576875 169.400764,37.8401402 169.569739,37.9026732 C169.749675,37.9717687 169.942747,38.0369056 170.148954,38.0980838 C170.476077,38.2006474 170.786827,38.3068097 171.081203,38.4165708 C171.35678,38.5170635 171.61837,38.6523941 171.859606,38.8192678 C172.076917,38.9698522 172.259953,39.1646606 172.396716,39.3909249 C172.535735,39.637604 172.604618,39.917616 172.595905,40.2006375 C172.598492,40.487344 172.531435,40.7703925 172.400494,41.0254647 C172.269317,41.2792562 172.087857,41.5036934 171.867164,41.6851106 C171.632267,41.8773333 171.364528,42.0254678 171.076884,42.1223554 C170.764084,42.2287699 170.435626,42.2818705 170.105229,42.2794396 C169.847429,42.2798507 169.590249,42.2541689 169.337622,42.2027868 C169.092647,42.153681 168.85449,42.0752017 168.628313,41.9690498 C168.409662,41.8667869 168.206792,41.7337214 168.025887,41.57391 C167.847359,41.4167494 167.700743,41.2266997 167.59404,41.0141287 C167.517388,40.8759378 167.495795,40.7499825 167.529263,40.6362629 C167.556061,40.5293273 167.625252,40.4379166 167.720895,40.3830927 C167.821665,40.3285343 167.938351,40.3109645 168.050718,40.3334304 C168.188514,40.3616485 168.310453,40.4411403 168.391877,40.5558314 C168.551474,40.8389606 168.790065,41.0694868 169.078513,41.2192559 C169.357774,41.3603259 169.699653,41.4306809 170.104149,41.430321 C170.300304,41.4307759 170.49546,41.4024028 170.683364,41.3461109 C170.861075,41.2938325 171.029281,41.2134655 171.181607,41.1080554 C171.324241,41.0091375 171.443458,40.8801551 171.530863,40.7301895 C171.618013,40.5812673 171.663159,40.4115042 171.661497,40.2389639 C171.666268,40.0615525 171.615295,39.8871099 171.515748,39.740181 C171.409592,39.5946637 171.275204,39.4720263 171.120609,39.379589 C170.941221,39.2715507 170.750859,39.182884 170.55273,39.1150828 C170.340406,39.041309 170.119264,38.973653 169.889306,38.9121149 C169.607166,38.8192678 169.332403,38.7177839 169.065018,38.607663 Z" id="Path"></path>
                    <path d="M177.8504,42.1941499 C177.725389,42.1887204 177.608178,42.1318731 177.526515,42.0370656 C177.444374,41.9424639 177.400487,41.820618 177.403438,41.6953669 L177.403438,32.8581638 C177.398795,32.7260667 177.452022,32.5985189 177.549187,32.5089078 C177.644877,32.4198492 177.771532,32.3716275 177.902221,32.3744955 L182.282766,32.3744955 C182.409462,32.3721142 182.531526,32.4221117 182.620147,32.5126865 C182.80441,32.704479 182.80441,33.0075302 182.620147,33.1993227 C182.532828,33.2922341 182.410245,33.3438174 182.282766,33.3412923 L178.370235,33.3412923 L178.370235,36.8165787 L181.254971,36.8165787 C181.384204,36.8079451 181.51059,36.8571939 181.599909,36.950991 C181.690369,37.04124 181.740251,37.1643873 181.7381,37.2921499 C181.741139,37.4178619 181.690953,37.5390125 181.599909,37.6257515 C181.507906,37.7154645 181.383418,37.763974 181.254971,37.7601638 L178.370235,37.7601638 L178.370235,41.2381492 L182.282766,41.2381492 C182.409205,41.2371324 182.53076,41.2869105 182.620168,41.3763188 C182.709576,41.4657271 182.759354,41.5872821 182.758338,41.7137204 C182.761554,41.8439046 182.711666,41.9697945 182.620147,42.0624366 C182.53325,42.1551532 182.409613,42.2044102 182.282766,42.1968489 L177.8504,42.1941499 Z" id="Path"></path>
                    <path d="M184.938624,41.7185787 C184.940878,41.8460047 184.889339,41.9684832 184.796654,42.0559589 C184.606364,42.2403151 184.304087,42.2403151 184.113797,42.0559589 C184.021112,41.9684832 183.969573,41.8460047 183.971827,41.7185787 L183.971827,32.8506065 C183.968063,32.7216373 184.019749,32.5972383 184.113797,32.5089078 C184.306157,32.3297374 184.604293,32.3297374 184.796654,32.5089078 C184.890702,32.5972383 184.942387,32.7216373 184.938624,32.8506065 L184.938624,41.7185787 Z" id="Path"></path>
                    <path d="M187.101636,39.0718982 C187.140331,39.3865419 187.237938,39.6910834 187.389354,39.9695995 C187.536937,40.2411314 187.730335,40.4851162 187.961011,40.6907835 C188.19397,40.8970557 188.461498,41.0606057 188.75129,41.173912 C189.051698,41.2923375 189.371973,41.3522516 189.694875,41.3504294 C190.078507,41.3557923 190.45853,41.2757681 190.807421,41.1161525 C191.12425,40.9718042 191.404643,40.7581887 191.627929,40.4910544 C191.698424,40.4276314 191.784481,40.384044 191.877321,40.3647393 C191.955782,40.3517673 192.036229,40.3582549 192.111598,40.3836326 C192.206314,40.4160453 192.284087,40.485069 192.327521,40.5752645 C192.399739,40.6637731 192.436657,40.7758717 192.431164,40.8899728 C192.42326,41.0233777 192.357385,41.1466464 192.250868,41.2273531 C192.109838,41.383826 191.952999,41.525289 191.782854,41.6494832 C191.602435,41.7813333 191.408224,41.8931902 191.20364,41.9830848 C190.980714,42.0814425 190.748026,42.1559894 190.509446,42.2054859 C190.242093,42.2611769 189.969581,42.2883195 189.696495,42.2864571 C189.207399,42.2898953 188.722898,42.1919291 188.27356,41.9987392 C187.84044,41.8131344 187.446162,41.5475965 187.111352,41.2160171 C186.776631,40.8830082 186.50955,40.4883436 186.324852,40.0538096 C185.940947,39.1425292 185.940947,38.1149017 186.324852,37.2036213 C186.510321,36.7707825 186.777342,36.3776736 187.111352,36.0457323 C187.445873,35.7138008 187.840222,35.4482151 188.27356,35.2630102 C188.722898,35.0698204 189.207399,34.9718542 189.696495,34.9752923 C190.183933,34.9724559 190.666827,35.0690716 191.115651,35.2592315 C191.548568,35.4409992 191.942699,35.7039366 192.276779,36.0338566 C192.609417,36.3659954 192.876108,36.7581556 193.06274,37.1895863 C193.257716,37.6361082 193.359478,38.117735 193.361794,38.6049639 C193.365256,38.7292723 193.318113,38.8496621 193.23116,38.9385655 C193.142638,39.0288682 193.020148,39.0776682 192.89378,39.0729778 L187.101636,39.0718982 Z M192.372325,38.2589467 C192.338278,37.9333673 192.243235,37.617109 192.092164,37.3266977 C191.944965,37.0428158 191.747428,36.7880299 191.509171,36.5747446 C191.01415,36.1333363 190.373222,35.890849 189.70999,35.8940462 C189.375065,35.8916393 189.042864,35.9543396 188.731857,36.0786607 C188.434449,36.196921 188.160318,36.3668825 187.922145,36.5806825 C187.686162,36.7942184 187.491152,37.0490483 187.346709,37.3326355 C187.198077,37.6206267 187.106432,37.9346005 187.076805,38.2573273 L192.372325,38.2589467 Z" id="Shape"></path>
                    <path d="M197.34342,37.8983547 L199.667835,41.4421968 C199.740205,41.5490268 199.767102,41.680258 199.742596,41.8069442 C199.718089,41.9336303 199.644191,42.0453631 199.537202,42.1174971 C199.432859,42.1886777 199.304286,42.2149369 199.180388,42.1903712 C199.052946,42.1688763 198.941831,42.0914321 198.877556,41.9793061 L196.629794,38.5731152 L195.417384,39.7266857 L195.417384,41.7137204 C195.421037,41.8427632 195.371226,41.9675841 195.279733,42.058658 C195.193587,42.1482829 195.074215,42.1982978 194.94991,42.1968489 C194.820233,42.1984953 194.695483,42.1472309 194.604433,42.0548793 C194.509993,41.9667458 194.457078,41.8428863 194.458684,41.7137204 L194.458684,32.8608629 C194.455571,32.7301492 194.508634,32.6043702 194.604433,32.5153855 C194.69669,32.4253001 194.820975,32.3755859 194.94991,32.3771174 C195.076593,32.3748776 195.198633,32.4248651 195.28729,32.5153855 C195.378901,32.6066425 195.428884,32.7316006 195.425481,32.8608629 L195.425481,38.458136 L198.846787,35.1518097 C198.932468,35.0592351 199.054342,35.00875 199.180388,35.0136187 C199.304561,35.0191349 199.421291,35.0743869 199.504273,35.1669243 C199.503835,35.1712353 199.505203,35.1755351 199.508052,35.1788001 C199.510815,35.1818993 199.512182,35.1859988 199.511831,35.1901361 C199.597354,35.2781586 199.643183,35.3973132 199.638686,35.519959 C199.638746,35.6430254 199.587257,35.7604911 199.496716,35.843844 L197.34342,37.8983547 Z" id="Path"></path>
                    <path d="M202.651896,34.9763719 L203.672134,34.9763719 C203.801292,34.9726658 203.926199,35.0227069 204.017072,35.1145629 C204.107865,35.203036 204.157903,35.3251994 204.155263,35.4519431 C204.159928,35.5836555 204.109911,35.7114323 204.017072,35.8049778 C203.926053,35.8966138 203.801245,35.946615 203.672134,35.9431688 L202.651896,35.9431688 L202.651896,41.7191185 C202.65415,41.8465445 202.602611,41.969023 202.509927,42.0564987 C202.419477,42.146989 202.296153,42.1968637 202.168228,42.1947579 C202.04179,42.1957065 201.920234,42.1459284 201.830826,42.0565201 C201.741418,41.9671119 201.69164,41.8455568 201.692657,41.7191185 L201.692657,35.9431688 L200.848936,35.9431688 C200.720483,35.9450285 200.596989,35.8936378 200.507777,35.8011991 C200.414085,35.7094945 200.362669,35.5830086 200.365808,35.4519431 C200.363283,35.3244651 200.414866,35.2018813 200.507777,35.1145629 C200.597956,35.0239967 200.72115,34.9740951 200.848936,34.9763719 L201.692657,34.9763719 L201.692657,32.8506065 C201.688803,32.7223746 201.738937,32.5984107 201.830848,32.5089078 C201.920494,32.4203079 202.042215,32.3718141 202.168228,32.3744955 C202.295453,32.3721707 202.418382,32.4205266 202.509927,32.5089078 C202.603974,32.5972383 202.65566,32.7216373 202.651896,32.8506065 L202.651896,34.9763719 Z" id="Path"></path>
                    <path d="M206.019221,36.2487003 C206.367742,35.854449 206.793426,35.5358748 207.269957,35.3126726 C207.761672,35.0814048 208.299049,34.9635248 208.842419,34.967735 L208.902877,34.967735 C209.066619,34.967735 209.192574,35.0125391 209.280743,35.1021473 C209.368652,35.1935091 209.415783,35.316596 209.411377,35.4433062 C209.415731,35.5753505 209.362553,35.7027826 209.265629,35.7925622 C209.167233,35.8820845 209.038013,35.9300584 208.905037,35.9264347 L208.843498,35.9264347 C208.46894,35.9247 208.098068,36.0004182 207.754165,36.1488358 C207.418513,36.2925861 207.113718,36.4996924 206.856464,36.7588192 C206.598202,37.0211213 206.391313,37.3294413 206.24648,37.6678566 C206.094607,38.021618 206.017599,38.4029847 206.020301,38.787959 L206.020301,41.7029243 C206.023454,41.8330973 205.973575,41.9589636 205.88211,42.0516405 C205.794791,42.1445519 205.672207,42.1961351 205.544729,42.1936101 C205.415052,42.1952565 205.290302,42.1439921 205.199252,42.0516405 C205.103808,41.9610593 205.050904,41.8344834 205.053504,41.7029243 L205.053504,35.4508635 C205.051897,35.3216977 205.104812,35.1978381 205.199252,35.1097046 C205.290444,35.0175639 205.4151,34.9663381 205.544729,34.967735 C205.673564,34.9638468 205.797846,35.0155655 205.885888,35.1097046 C205.974238,35.2010506 206.022601,35.3238027 206.020301,35.4508635 L206.019221,36.2487003 Z" id="Path"></path>
                    <path d="M209.789782,37.2036213 C209.974091,36.7677604 210.24119,36.3717861 210.576283,36.0376352 C210.912061,35.7056132 211.307699,35.4402065 211.742269,35.2554529 C212.650985,34.8718315 213.676185,34.8718315 214.5849,35.2554529 C215.460602,35.6276242 216.156747,36.3264803 216.525512,37.2036213 C216.718146,37.6559754 216.816065,38.1429987 216.813289,38.6346534 C216.815897,39.122454 216.717952,39.605565 216.525512,40.0538096 C216.154463,40.9282815 215.458856,41.6248566 214.5849,41.9971198 C213.676185,42.3807412 212.650985,42.3807412 211.742269,41.9971198 C211.30778,41.8119754 210.91218,41.5464109 210.576283,41.2143977 C210.241741,40.8812409 209.974684,40.4866132 209.789782,40.0521902 C209.597342,39.6039456 209.499397,39.1208346 209.502012,38.633034 C209.49945,38.1419241 209.597365,37.6554742 209.789782,37.2036213 Z M210.679927,39.6727049 C210.815327,39.9898468 211.009261,40.2786422 211.251584,40.5239827 C211.495761,40.769633 211.784725,40.9662459 212.102861,41.1031971 C212.779501,41.3896589 213.543351,41.3896589 214.21999,41.1031971 C214.539144,40.9657732 214.82944,40.7692509 215.075586,40.5239827 C215.319309,40.2797899 215.513435,39.9907087 215.647243,39.6727049 C215.786224,39.3438203 215.856754,38.9900716 215.85453,38.633034 C215.859123,37.919131 215.578757,37.2328864 215.075586,36.7264307 C214.829815,36.4817998 214.539358,36.2866347 214.21999,36.1515348 C213.544956,35.8701146 212.785453,35.8701146 212.110419,36.1515348 C211.465092,36.4232844 210.951676,36.9367004 210.679927,37.582027 C210.538116,37.9141426 210.466267,38.2719186 210.468861,38.633034 C210.466586,38.9904556 210.538454,39.3444657 210.679927,39.6727049 L210.679927,39.6727049 Z" id="Shape"></path>
                    <path d="M227.276875,39.125879 L222.865561,39.125879 L221.692018,41.9026534 C221.642013,42.0240262 221.544472,42.1196168 221.422113,42.1671595 C221.297961,42.2157341 221.159379,42.211641 221.03831,42.1558235 C220.918509,42.1083904 220.826754,42.0090881 220.788918,41.8859193 C220.750303,41.7641089 220.759966,41.6321183 220.815909,41.5172302 L224.64369,32.6643726 C224.713496,32.4811374 224.893173,32.3635309 225.089032,32.3728761 C225.181651,32.3717811 225.27247,32.3984817 225.349759,32.4495289 C225.428119,32.5030524 225.489401,32.5780156 225.526277,32.6654522 L229.330846,41.5183098 C229.386546,41.6346051 229.396188,41.7676669 229.357837,41.8907776 C229.320169,42.010113 229.231926,42.1068446 229.116542,42.1552837 C228.99772,42.2117623 228.86067,42.2158738 228.738676,42.1666197 C228.615361,42.1224581 228.51562,42.0295486 228.462834,41.9096709 L227.276875,39.125879 Z M223.272577,38.1612414 L226.870399,38.1612414 L225.067439,33.9188873 L223.272577,38.1612414 Z" id="Shape"></path>
                    <path d="M230.399127,37.2921499 C230.394775,37.8335904 230.5019,38.3701332 230.713835,38.8683904 C230.915119,39.3447387 231.205311,39.7783781 231.568892,40.1461169 C231.933808,40.5120746 232.36627,40.8037438 232.8423,41.004952 C233.340747,41.2168859 233.877465,41.3240091 234.41908,41.3196603 C234.848549,41.3236858 235.275897,41.2589913 235.684931,41.1280283 C236.060535,41.0069594 236.412171,40.8213687 236.724062,40.579583 C237.029049,40.3411039 237.288998,40.0500775 237.491669,39.720208 C237.703514,39.3727242 237.857563,38.9931634 237.947807,38.596327 L235.585066,38.596327 C235.457627,38.5986485 235.335122,38.5470986 235.247686,38.4543574 C235.157226,38.3641084 235.107343,38.2409611 235.109495,38.1131985 C235.108444,37.9877069 235.158304,37.8671482 235.247686,37.7790571 C235.335178,37.6864583 235.457696,37.6350986 235.585066,37.6376273 L238.492474,37.6376273 C238.626378,37.6390274 238.755462,37.6877924 238.856845,37.7752784 C238.956087,37.861544 239.008724,37.9896355 238.998814,38.1207558 C238.947758,38.695714 238.790343,39.2561857 238.534579,39.7736491 C238.289674,40.2713877 237.955587,40.7200074 237.548889,41.0972592 C237.138239,41.474915 236.660819,41.7727533 236.141069,41.9755275 C235.58992,42.1909067 235.002699,42.2990067 234.410983,42.2940144 C233.961512,42.2954178 233.513914,42.2360408 233.080355,42.1174971 C232.662157,42.0036561 232.260975,41.8346512 231.887379,41.6149355 C231.149085,41.1798363 230.535526,40.5616285 230.106011,39.8200726 C229.889556,39.4453116 229.721934,39.0443984 229.607228,38.6270961 C229.373215,37.76312 229.371911,36.8526155 229.603449,35.9879729 C229.715331,35.5708858 229.880429,35.1699331 230.094675,34.7949963 C230.306772,34.4243901 230.565866,34.0827419 230.865521,33.7785371 C231.165419,33.4732455 231.503212,33.2076548 231.870645,32.9882576 C232.636166,32.5328932 233.511095,32.2942423 234.401806,32.2977514 C235.742242,32.2896897 237.028134,32.8280606 237.962922,33.7887935 C238.060026,33.8740151 238.114878,33.9975301 238.112989,34.1267135 C238.110786,34.2532404 238.059945,34.3740599 237.971019,34.4640938 C237.881907,34.5547175 237.760196,34.6058518 237.633099,34.6060634 C237.503179,34.6098571 237.377771,34.5582417 237.288162,34.4640938 C236.903874,34.0795396 236.445987,33.7764242 235.941879,33.5728701 C235.455467,33.3759801 234.935733,33.2744525 234.410983,33.2738163 C233.881649,33.2713813 233.357274,33.3758525 232.86929,33.5809673 C231.903493,33.9817656 231.132661,34.7442674 230.721393,35.7056531 C230.504693,36.2062829 230.394929,36.7466491 230.399127,37.2921499 Z" id="Path"></path>
                    <path d="M83.0109244,10.6882333 C82.5117089,9.58869171 81.8199493,8.58724905 80.9682894,7.73116299 C80.1210361,6.88128756 79.1206301,6.19939241 78.019856,5.72145636 C76.920852,5.23605827 75.7324986,4.98581087 74.5310744,4.98677436 C73.1952286,5.03859875 71.9554686,5.31570039 70.8117946,5.81808207 C69.704446,6.29533353 68.6971566,6.97736 67.8428485,7.8283285 C66.1117549,9.56727065 65.1472349,11.9258068 65.1637794,14.3794431 C65.1637794,14.5986053 65.1704371,14.8145287 65.1837524,15.0272132 L54.6537101,21.8287988 C54.6537101,21.8287988 54.4971657,21.9745471 54.2218634,21.890337 L56.8798799,12.8069813 C56.8798799,12.8069813 57.5621977,10.1883708 55.4223973,10.2612449 C53.7489913,10.3184646 53.5298291,10.5910678 53.5141746,10.7071266 C53.5022988,10.7951154 53.4947415,10.8841838 53.476388,10.9710929 L53.3247019,11.6782419 C53.2731118,11.919154 53.1369588,12.1336283 52.9408981,12.2828273 C51.5757227,13.3214187 46.0270323,17.5249066 44.9889808,18.0415032 C44.9889808,18.0415032 44.4723841,18.2822577 45.1212338,17.0266634 L47.9530686,12.0539486 C47.9530686,12.0539486 48.4005698,10.9203509 47.022439,10.2250777 C46.3336435,9.87744114 45.734996,9.99943784 45.3085473,10.2083437 C44.9701516,10.3774687 44.6803584,10.6299232 44.4664462,10.9419433 C43.7609167,11.9546238 40.9706471,16.070123 40.7239547,18.1559426 C40.7239547,18.1559426 40.5684899,18.8803654 40.7126187,19.2895402 C40.7126187,19.2895402 34.6192616,22.433924 31.9844569,22.8976195 C31.9844569,22.8976195 30.0465448,23.5076029 30.9787939,21.5162498 L34.271625,13.1065749 C34.5204982,12.4866297 34.490206,11.7895142 34.1884945,11.193494 C33.7706828,10.3902591 32.7812141,9.67609261 30.4449234,10.509017 C30.4449234,10.509017 26.6797599,11.9454471 20.4411943,18.0517596 C19.9959714,18.4859184 19.5131094,18.8797228 18.9982865,19.2285418 L18.8174507,19.3516182 C18.8174507,19.3429812 18.8206896,19.3343443 18.8217692,19.3257073 C18.8806083,18.9926456 18.9297308,18.659044 18.9837117,18.3243628 C19.0819568,17.6546405 19.1652672,16.9823991 19.233643,16.3076387 C19.3146142,15.4979261 19.3723737,14.6882135 19.3858689,13.8752621 C19.3982845,13.1270876 19.3804709,12.3691967 19.2519965,11.630199 C19.1559106,11.080674 19.0009856,10.382162 18.4854685,10.0755508 C18.2954948,9.96292891 18.0922179,9.87443728 17.8803433,9.81212433 C17.8134071,9.79197148 17.7459311,9.77397787 17.6779152,9.75814349 C16.5124689,9.50713259 15.3621372,10.0620556 14.435826,10.7233209 C12.0790226,12.4059036 10.0455644,14.0226297 6.34571771,17.9918408 C6.19441038,18.1562147 6.0193769,18.2970421 5.82642205,18.4096525 C5.70617068,18.4815634 5.57565622,18.5347158 5.43937943,18.5672766 C5.43937943,18.5672766 6.81697044,14.7816003 7.13437777,12.559749 C7.22570924,11.9645104 7.02477772,11.3617158 6.59456938,10.9403239 C6.18863347,10.5527414 5.57163249,10.3011907 4.72143428,10.835601 C4.15654427,11.1958982 3.74297281,11.7503988 3.55868701,12.3945677 L0.0666665494,24.312997 C-0.0962604748,24.8500337 0.0444158506,25.4331898 0.434276061,25.8368761 C0.671251944,26.0760112 1.01241084,26.265484 1.50039763,26.2789792 C2.28533633,26.2917336 3.0081684,25.8536282 3.36003752,25.1518593 L4.44559219,23.0325715 C5.74276693,22.0257857 6.97709777,20.9405408 8.14166022,19.7829251 C8.4169625,19.5094221 8.69262465,19.2360992 8.96864667,18.9629561 C10.1243764,17.8207216 11.2849645,16.6833453 12.4649856,15.5659419 C12.928681,15.1265379 13.4334018,14.7400351 13.9019555,14.3071088 L14.063898,14.1624401 C14.4126143,13.8504309 15.7313662,12.4631233 16.3019436,13.0828233 C16.4601075,13.2544824 16.4568686,13.5378818 16.4433734,13.7548848 C16.3321729,15.5362525 16.0746843,17.281453 15.7454012,19.0331312 C15.7043757,19.2522934 15.6626305,19.4712757 15.6201656,19.690078 C15.5305574,20.1316413 15.3842694,20.563488 15.3275895,21.0082901 L15.2234065,21.7893928 C15.113167,22.4581583 15.4243135,23.1260946 16.0072082,23.4719756 C16.6970834,23.873593 17.7885759,24.0366151 19.2773674,22.8668504 C19.2773674,22.8668504 26.8605957,15.464458 29.4916218,13.7381507 C29.6562633,13.6301891 29.8155068,13.5162895 29.9931038,13.4040093 C30.4352068,13.1216896 31.1320995,12.5942968 30.6214407,13.7867335 L27.9429115,20.4555263 C27.744262,21.1238091 27.5348164,21.8109852 27.5261794,22.5143555 C27.5175425,23.2177258 27.8263129,23.9362108 28.268416,24.4749396 C29.0781285,25.4638685 30.5453277,25.5259465 31.7663743,25.3138018 C34.1955121,24.8922114 36.2694559,23.6943766 38.6510905,22.1672587 C39.5787422,21.5720764 40.45147,20.8953556 41.2589048,20.1451365 C41.2518873,20.152154 41.5352867,20.4026251 41.5509411,20.4150407 C41.8109449,20.6267768 42.0963729,20.8052146 42.4005995,20.9462121 C43.4057228,21.4120668 44.4993746,21.3926337 45.5314882,21.016927 C46.4993646,20.6638923 47.3733144,20.0841381 48.2170349,19.5000655 C49.1627792,18.8458177 50.0782942,18.1365095 50.9090593,17.3408319 C51.2513211,17.018569 51.5714356,16.6735667 51.8672192,16.3081785 C51.8672192,16.3081785 50.0691175,22.0511999 48.5797862,24.8657608 C48.5797862,24.8657608 31.4392504,36.0198215 26.5815147,48.239464 C26.5815147,48.239464 24.2149948,53.7222978 28.3542455,53.9074521 C32.6781107,54.1001637 36.2894288,49.7007253 36.2894288,49.7007253 C36.2894288,49.7007253 42.726104,43.7212678 52.48476,26.4473994 L65.4147903,16.6228868 C65.5317226,17.1260257 65.6932232,17.6177535 65.897379,18.0922452 C66.3637928,19.194831 67.0451513,20.1934718 67.9016876,21.0298824 C69.6552448,22.7337736 72.0094619,23.6782532 74.4544216,23.6587493 C75.8417292,23.6587493 77.0687136,23.4590202 78.135375,23.059562 C79.2020364,22.6601038 80.1591166,21.9835439 81.0066158,21.0298824 C81.4761673,20.5616725 81.4772549,19.8014667 81.0090449,19.3319152 C80.540835,18.8623637 79.7806292,18.8612761 79.3110777,19.329486 C78.6744059,19.9443856 77.9293092,20.435992 77.1135177,20.7794113 C75.488426,21.4477144 73.6704422,21.4752976 72.0258237,20.8566039 C70.5125003,20.2859054 69.2450245,19.206232 68.4409562,17.8029079 C68.0294026,17.0938613 67.7547337,16.3138015 67.6312436,15.5033242 L82.5839359,15.5033242 C82.8664356,15.5033242 83.1363398,15.4002208 83.3936485,15.194014 C83.6509572,14.9878071 83.7793509,14.6912724 83.7793509,14.3044097 C83.7891371,13.0574902 83.5269903,11.8233922 83.0109244,10.6882333 L83.0109244,10.6882333 Z M30.5026829,50.9066573 C30.4433039,50.9455235 30.3850046,50.9860091 30.3283248,51.0291938 C29.9412821,51.3233893 27.997972,52.6577957 28.9453357,48.969285 C29.3383162,47.4367689 30.8983624,45.0724082 32.6943049,42.7156048 C35.9568243,38.4459474 39.7038728,34.569378 43.8602414,31.1637053 L48.0556322,27.786664 C48.0556322,27.786664 37.2243769,46.4742906 30.5026829,50.9066573 Z M67.6706496,13.1044157 C67.8204616,12.3163968 68.1003022,11.5587841 68.4987157,10.8625914 C68.8879076,10.1781995 69.3971549,9.56947988 70.002082,9.06556933 C70.6140624,8.55868445 71.3040397,8.15417733 72.0452568,7.86773451 C73.5964721,7.27488441 75.3118313,7.27488441 76.8630466,7.86773451 C77.604144,8.1544254 78.294083,8.55891008 78.9062214,9.06556933 C79.5133531,9.57285154 80.0283376,10.1811541 80.428481,10.8636711 C80.8384343,11.5564527 81.1255221,12.3148978 81.2770598,13.1054953 L67.6706496,13.1044157 Z" id="Shape"></path>
                </g>
            </g>
        </g>
    </g>
</svg>